<svg xmlns="http://www.w3.org/2000/svg" viewBox="0 0 700 200">
    <path d="M274.799 89.548c6.102-9.153 12.542-12.769 19.322-12.769 8.362 0 12.995 5.311 12.995 14.125 0 18.645-17.062 36.95-33.56 36.95-2.599 0-4.972-.452-7.796-1.922-1.921 7.91-4.52 17.176-4.52 18.758 0 2.486 1.695 3.276 7.006 3.276v1.808h-22.938v-1.808c4.859-.112 6.328-1.808 7.684-7.118l12.994-48.814c1.243-4.52 1.808-7.457 1.808-8.022 0-2.711-3.164-3.05-4.972-3.05h-2.486l-.226-1.695 17.626-2.486c.339 0 .565.227.565.452 0 0-.113.565-.227 1.017l-3.275 11.298zm15.141-7.91c-5.988 0-12.655 6.102-15.254 12.881-3.277 8.475-7.345 23.051-7.345 26.893 0 2.486 2.26 4.295 5.423 4.295 5.989 0 11.413-3.73 16.385-10.736 5.423-7.569 7.796-15.818 7.796-23.728.001-6.441-1.92-9.605-7.005-9.605zm68.818 31.753c-8.587 0-15.253-6.781-15.253-15.481 0-8.475 6.779-15.028 15.48-15.028 8.248 0 15.027 6.893 15.027 15.254 0 8.473-6.78 15.255-15.254 15.255zm.226-23.053c-4.746 0-8.022 3.39-8.022 7.571 0 4.745 3.39 8.022 7.796 8.022 4.407 0 7.797-3.389 7.797-7.796 0-4.406-3.503-7.797-7.571-7.797zm62.94-12.089c2.486-8.022 4.408-14.238 8.137-19.548 3.389-4.858 8.021-8.7 14.916-8.7 5.537 0 9.717 2.938 9.717 7.006 0 2.485-2.146 4.858-4.746 4.858-2.033 0-4.182-1.695-4.182-4.407 0-1.921 1.131-2.486 1.131-3.503 0-.904-.904-1.469-2.486-1.469-6.328 0-10.508 7.909-13.785 25.763h12.092l-.68 3.616h-12.203l-8.135 36.159C416.953 138.927 409.383 150 399.1 150c-5.084 0-8.926-2.938-8.926-6.893 0-2.6 1.92-4.746 4.293-4.746 2.6 0 4.293 1.809 4.293 4.182 0 1.469-1.016 2.033-1.016 3.275 0 1.018.904 1.809 2.26 1.809 4.746 0 8.361-6.102 10.961-18.305l9.943-47.458h-10.283l.791-3.616h10.508z" fill="#212121"/>
</svg>
